# Blender v2.82 (sub 7) OBJ File: 'Guns.blend'
# www.blender.org
g Rifle
v 0.100000 -0.318489 2.170495
v 0.100000 -0.591925 2.147878
v 0.100000 -0.088953 2.200334
v 0.100000 -0.314684 1.434400
v 0.100000 -0.259728 1.126594
v 0.100000 -0.205733 1.112013
v 0.100000 -0.099318 0.838037
v 0.100000 -0.219060 0.810340
v 0.100000 -0.255447 0.731924
v 0.100000 -0.266135 0.552514
v 0.100000 -0.120371 0.220421
v 0.100000 -0.063566 0.200129
v 0.100000 0.007138 -2.527541
v 0.100000 0.158231 -2.494352
v 0.100000 0.258121 -2.455139
v 0.100000 0.255787 -2.375414
v 0.100000 0.173472 -2.337877
v 0.100000 0.240321 -0.354102
v 0.100000 0.266381 -0.285946
v 0.100000 0.218317 -0.234395
v 0.100000 0.196231 0.315175
v 0.100000 0.230446 0.323496
v 0.100000 0.234208 0.465811
v 0.100000 0.202950 0.474552
v 0.100000 0.199454 0.816188
v 0.100000 0.176772 0.830568
v 0.100000 0.174933 0.987152
v 0.100000 0.237724 1.012370
v 0.100000 0.220882 1.049486
v 0.100000 0.163931 1.047006
v 0.100000 0.155885 1.123921
v 0.100000 0.104663 1.127097
v 0.100000 0.083052 0.865332
v 0.100000 -0.028782 1.182044
v 0.100000 -0.077268 0.560620
v 0.100000 -0.243175 0.582344
v 0.100000 -0.209370 0.588483
v 0.100000 -0.239464 0.622977
v 0.100000 -0.134905 0.801059
v 0.100000 -0.109517 0.771544
v 0.100000 -0.099445 0.728246
v 0.100000 -0.126915 0.735970
v 0.100000 -0.168538 0.759962
v 0.100000 -0.205159 0.748281
v 0.100000 -0.223569 0.726948
v 0.100000 -0.191400 0.739629
v 0.100000 -0.157519 0.726567
v 0.100000 -0.117338 0.691307
v 0.100000 -0.095139 0.684014
v 0.100000 -0.096488 0.628718
v 0.100000 -0.127500 0.593651
v 0.100000 -0.181497 0.597971
v 0.100000 -0.225731 0.637980
v 0.100000 -0.238649 0.729428
v 0.100000 -0.204858 0.795153
v -0.100000 -0.318489 2.170495
v -0.100000 -0.591925 2.147878
v -0.100000 -0.088953 2.200334
v -0.100000 -0.314684 1.434400
v -0.100000 -0.259728 1.126594
v -0.100000 -0.205733 1.112013
v -0.100000 -0.099318 0.838037
v -0.100000 -0.219060 0.810340
v -0.100000 -0.255447 0.731924
v -0.100000 -0.266135 0.552514
v -0.100000 -0.120371 0.220421
v -0.100000 -0.063566 0.200129
v -0.100000 0.007138 -2.527541
v -0.100000 0.158231 -2.494352
v -0.100000 0.258121 -2.455139
v -0.100000 0.255787 -2.375414
v -0.100000 0.173472 -2.337877
v -0.100000 0.240321 -0.354102
v -0.100000 0.266381 -0.285946
v -0.100000 0.218317 -0.234395
v -0.100000 0.196231 0.315175
v -0.100000 0.230446 0.323496
v -0.100000 0.234208 0.465811
v -0.100000 0.202950 0.474552
v -0.100000 0.199454 0.816188
v -0.100000 0.176772 0.830568
v -0.100000 0.174933 0.987152
v -0.100000 0.237724 1.012370
v -0.100000 0.220882 1.049486
v -0.100000 0.163931 1.047006
v -0.100000 0.155885 1.123921
v -0.100000 0.104663 1.127097
v -0.100000 0.083052 0.865332
v -0.100000 -0.028782 1.182044
v -0.100000 -0.077268 0.560620
v -0.100000 -0.243175 0.582344
v -0.100000 -0.209370 0.588483
v -0.100000 -0.239464 0.622977
v -0.100000 -0.134905 0.801059
v -0.100000 -0.109517 0.771544
v -0.100000 -0.099445 0.728246
v -0.100000 -0.126915 0.735970
v -0.100000 -0.168538 0.759962
v -0.100000 -0.205159 0.748281
v -0.100000 -0.223569 0.726948
v -0.100000 -0.191400 0.739629
v -0.100000 -0.157519 0.726567
v -0.100000 -0.117338 0.691307
v -0.100000 -0.095139 0.684014
v -0.100000 -0.096488 0.628718
v -0.100000 -0.127500 0.593651
v -0.100000 -0.181497 0.597971
v -0.100000 -0.225731 0.637980
v -0.100000 -0.238649 0.729428
v -0.100000 -0.204858 0.795153
vt 0.000000 0.000000
vt 0.000000 0.000000
vt 0.000000 0.000000
vt 0.000000 0.000000
vt 0.000000 0.000000
vt 0.000000 0.000000
vt 0.000000 0.000000
vt 0.000000 0.000000
vt 0.000000 0.000000
vt 0.000000 0.000000
vt 0.000000 0.000000
vt 0.000000 0.000000
vt 0.000000 0.000000
vt 0.000000 0.000000
vt 0.000000 0.000000
vt 0.000000 0.000000
vt 0.000000 0.000000
vt 0.000000 0.000000
vt 0.000000 0.000000
vt 0.000000 0.000000
vt 0.000000 0.000000
vt 0.000000 0.000000
vt 0.000000 0.000000
vt 0.000000 0.000000
vt 0.000000 0.000000
vt 0.000000 0.000000
vt 0.000000 0.000000
vt 0.000000 0.000000
vt 0.000000 0.000000
vt 0.000000 0.000000
vt 0.000000 0.000000
vt 0.000000 0.000000
vt 0.000000 0.000000
vt 0.000000 0.000000
vt 0.000000 0.000000
vt 0.000000 0.000000
vt 0.000000 0.000000
vt 0.000000 0.000000
vt 0.000000 0.000000
vt 0.000000 0.000000
vt 0.000000 0.000000
vt 0.000000 0.000000
vt 0.000000 0.000000
vt 0.000000 0.000000
vt 0.000000 0.000000
vt 0.000000 0.000000
vt 0.000000 0.000000
vt 0.000000 0.000000
vt 0.000000 0.000000
vt 0.000000 0.000000
vt 0.000000 0.000000
vt 0.000000 0.000000
vt 0.000000 0.000000
vt 0.000000 0.000000
vt 0.000000 0.000000
vt 0.000000 0.000000
vt 0.000000 0.000000
vt 0.000000 0.000000
vt 0.000000 0.000000
vt 0.000000 0.000000
vt 0.000000 0.000000
vt 0.000000 0.000000
vt 0.000000 0.000000
vt 0.000000 0.000000
vt 0.000000 0.000000
vt 0.000000 0.000000
vt 0.000000 0.000000
vt 0.000000 0.000000
vt 0.000000 0.000000
vt 0.000000 0.000000
vt 0.000000 0.000000
vt 0.000000 0.000000
vt 0.000000 0.000000
vt 0.000000 0.000000
vt 0.000000 0.000000
vt 0.000000 0.000000
vt 0.000000 0.000000
vt 0.000000 0.000000
vt 0.000000 0.000000
vt 0.000000 0.000000
vt 0.000000 0.000000
vt 0.000000 0.000000
vt 0.000000 0.000000
vt 0.000000 0.000000
vt 0.000000 0.000000
vt 0.000000 0.000000
vt 0.000000 0.000000
vt 0.000000 0.000000
vt 0.000000 0.000000
vt 0.000000 0.000000
vt 0.000000 0.000000
vt 0.000000 0.000000
vt 0.000000 0.000000
vt 0.000000 0.000000
vt 0.000000 0.000000
vt 0.000000 0.000000
vt 0.000000 0.000000
vt 0.000000 0.000000
vt 0.000000 0.000000
vt 0.000000 0.000000
vt 0.000000 0.000000
vt 0.000000 0.000000
vt 0.000000 0.000000
vt 0.000000 0.000000
vt 0.000000 0.000000
vt 0.000000 0.000000
vt 0.000000 0.000000
vt 0.000000 0.000000
vt 0.000000 0.000000
vt 0.000000 0.000000
vn 1.0000 -0.0000 -0.0000
vn -1.0000 0.0000 0.0000
vn 0.0000 -0.3121 -0.9500
vn 0.0000 0.9341 -0.3571
vn -0.0000 -0.9997 0.0244
vn 0.0000 0.7314 0.6819
vn -0.0000 -0.7491 0.6625
vn 0.0000 0.9992 0.0402
vn 0.0000 0.0797 0.9968
vn 0.0000 0.2363 -0.9717
vn 0.0000 0.6708 0.7416
vn 0.0000 0.9997 -0.0264
vn 0.0000 0.9902 0.1399
vn 0.0000 0.2693 0.9631
vn 0.0000 0.8893 -0.4572
vn 0.0000 0.9999 0.0102
vn 0.0000 0.0841 -0.9965
vn 0.0000 0.5354 0.8446
vn 0.0000 0.9999 0.0117
vn 0.0000 0.3727 -0.9280
vn 0.0000 -0.1289 0.9917
vn 0.0000 0.9106 0.4132
vn 0.0000 -0.0824 0.9966
vn 0.0000 -0.0435 0.9991
vn 0.0000 -0.9844 -0.1758
vn 0.0000 0.9946 0.1040
vn 0.0000 -0.9321 -0.3622
vn -0.0000 0.0619 0.9981
vn 0.0000 -0.2607 -0.9654
vn -0.0000 -0.9966 0.0823
vn 0.0000 -0.9322 -0.3621
vn 0.0000 0.9429 0.3330
vn 0.0000 -0.2254 0.9743
vn 0.0000 -0.7535 -0.6574
vn 0.0000 0.9983 0.0590
vn 0.0000 -0.9071 0.4209
vn 0.0000 -0.7581 -0.6521
vn 0.0000 -0.7924 0.6099
vn 0.0000 -0.9894 -0.1452
vn -0.0000 -0.9740 -0.2266
vn 0.0000 -0.1787 0.9839
vn -0.0000 -0.9157 -0.4019
vn 0.0000 0.2707 0.9627
vn -0.0000 -0.3364 -0.9417
vn 0.0000 0.4994 0.8664
vn -0.0000 -0.9997 -0.0259
vn 0.0000 -0.3039 0.9527
vn 0.0000 0.2145 -0.9767
vn 0.0000 -0.7571 0.6534
vn 0.0000 0.3654 -0.9308
vn 0.0000 0.3667 -0.9303
vn 0.0000 0.9996 0.0293
vn 0.0000 -0.3597 -0.9331
vn 0.0000 0.4149 0.9099
vn 0.0000 -0.6596 -0.7516
vn 0.0000 0.9994 -0.0337
s off
f 32/1/1 33/2/1 30/3/1
f 28/4/1 29/5/1 30/3/1 27/6/1
f 31/7/1 32/1/1 30/3/1
f 19/8/1 20/9/1 18/10/1
f 6/11/1 7/12/1 33/2/1 34/13/1
f 6/11/1 34/13/1 4/14/1
f 5/15/1 6/11/1 4/14/1
f 1/16/1 4/14/1 34/13/1 3/17/1
f 26/18/1 12/19/1 21/20/1
f 11/21/1 12/19/1 26/18/1 33/2/1
f 24/22/1 25/23/1 26/18/1 21/20/1
f 22/24/1 23/25/1 24/22/1 21/20/1
f 27/6/1 33/2/1 26/18/1
f 30/3/1 33/2/1 27/6/1
f 2/26/1 4/14/1 1/16/1
f 15/27/1 16/28/1 17/29/1 14/30/1
f 14/30/1 17/29/1 13/31/1
f 17/29/1 18/10/1 13/31/1
f 13/31/1 18/10/1 12/19/1
f 18/10/1 20/9/1 12/19/1
f 21/20/1 12/19/1 20/9/1
f 33/2/1 7/12/1 35/32/1
f 33/2/1 35/32/1 11/21/1
f 11/21/1 35/32/1 10/33/1
f 36/34/1 10/33/1 35/32/1
f 37/35/1 36/34/1 35/32/1
f 51/36/1 35/32/1 50/37/1
f 50/37/1 35/32/1 49/38/1
f 35/32/1 7/12/1 41/39/1 49/38/1
f 41/39/1 7/12/1 40/40/1
f 40/40/1 7/12/1 39/41/1
f 7/12/1 8/42/1 55/43/1 39/41/1
f 8/42/1 9/44/1 54/45/1 55/43/1
f 9/44/1 38/46/1 53/47/1 54/45/1
f 38/46/1 37/35/1 52/48/1 53/47/1
f 37/35/1 35/32/1 51/36/1 52/48/1
f 41/39/1 42/49/1 48/50/1 49/38/1
f 48/50/1 42/49/1 47/51/1
f 42/49/1 43/52/1 47/51/1
f 47/51/1 43/52/1 46/53/1
f 43/52/1 44/54/1 46/53/1
f 45/55/1 46/53/1 44/54/1
f 87/56/2 85/57/2 88/58/2
f 83/59/2 82/60/2 85/57/2 84/61/2
f 86/62/2 85/57/2 87/56/2
f 74/63/2 73/64/2 75/65/2
f 61/66/2 89/67/2 88/58/2 62/68/2
f 61/66/2 59/69/2 89/67/2
f 60/70/2 59/69/2 61/66/2
f 56/71/2 58/72/2 89/67/2 59/69/2
f 81/73/2 76/74/2 67/75/2
f 66/76/2 88/58/2 81/73/2 67/75/2
f 79/77/2 76/74/2 81/73/2 80/78/2
f 77/79/2 76/74/2 79/77/2 78/80/2
f 82/60/2 81/73/2 88/58/2
f 85/57/2 82/60/2 88/58/2
f 57/81/2 56/71/2 59/69/2
f 70/82/2 69/83/2 72/84/2 71/85/2
f 69/83/2 68/86/2 72/84/2
f 72/84/2 68/86/2 73/64/2
f 68/86/2 67/75/2 73/64/2
f 73/64/2 67/75/2 75/65/2
f 76/74/2 75/65/2 67/75/2
f 88/58/2 90/87/2 62/68/2
f 88/58/2 66/76/2 90/87/2
f 66/76/2 65/88/2 90/87/2
f 91/89/2 90/87/2 65/88/2
f 92/90/2 90/87/2 91/89/2
f 106/91/2 105/92/2 90/87/2
f 105/92/2 104/93/2 90/87/2
f 90/87/2 104/93/2 96/94/2 62/68/2
f 96/94/2 95/95/2 62/68/2
f 95/95/2 94/96/2 62/68/2
f 62/68/2 94/96/2 110/97/2 63/98/2
f 63/98/2 110/97/2 109/99/2 64/100/2
f 64/100/2 109/99/2 108/101/2 93/102/2
f 93/102/2 108/101/2 107/103/2 92/90/2
f 92/90/2 107/103/2 106/91/2 90/87/2
f 96/94/2 104/93/2 103/104/2 97/105/2
f 103/104/2 102/106/2 97/105/2
f 97/105/2 102/106/2 98/107/2
f 102/106/2 101/108/2 98/107/2
f 98/107/2 101/108/2 99/109/2
f 100/110/2 99/109/2 101/108/2
f 49/38/3 48/50/3 103/104/3 104/93/3
f 18/10/4 73/64/4 74/63/4 19/8/4
f 49/38/5 104/93/5 105/92/5 50/37/5
f 19/8/6 74/63/6 75/65/6 20/9/6
f 50/37/7 105/92/7 106/91/7 51/36/7
f 20/9/8 75/65/8 76/74/8 21/20/8
f 51/36/9 106/91/9 107/103/9 52/48/9
f 21/20/10 76/74/10 77/79/10 22/24/10
f 53/47/11 52/48/11 107/103/11 108/101/11
f 22/24/12 77/79/12 78/80/12 23/25/12
f 54/45/13 53/47/13 108/101/13 109/99/13
f 23/25/14 78/80/14 79/77/14 24/22/14
f 55/43/15 54/45/15 109/99/15 110/97/15
f 24/22/16 79/77/16 80/78/16 25/23/16
f 39/41/17 55/43/17 110/97/17 94/96/17
f 25/23/18 80/78/18 81/73/18 26/18/18
f 26/18/19 81/73/19 82/60/19 27/6/19
f 27/6/20 82/60/20 83/59/20 28/4/20
f 1/16/21 3/17/21 58/72/21 56/71/21
f 28/4/22 83/59/22 84/61/22 29/5/22
f 2/26/23 1/16/23 56/71/23 57/81/23
f 29/5/24 84/61/24 85/57/24 30/3/24
f 4/14/25 59/69/25 60/70/25 5/15/25
f 30/3/26 85/57/26 86/62/26 31/7/26
f 4/14/27 2/26/27 57/81/27 59/69/27
f 31/7/28 86/62/28 87/56/28 32/1/28
f 5/15/29 60/70/29 61/66/29 6/11/29
f 32/1/30 87/56/30 88/58/30 33/2/30
f 7/12/31 6/11/31 61/66/31 62/68/31
f 34/13/32 33/2/32 88/58/32 89/67/32
f 8/42/33 7/12/33 62/68/33 63/98/33
f 37/35/34 38/46/34 93/102/34 92/90/34
f 3/17/35 34/13/35 89/67/35 58/72/35
f 9/44/36 8/42/36 63/98/36 64/100/36
f 40/40/37 39/41/37 94/96/37 95/95/37
f 36/34/38 91/89/38 65/88/38 10/33/38
f 38/46/39 9/44/39 64/100/39 93/102/39
f 41/39/40 40/40/40 95/95/40 96/94/40
f 37/35/41 92/90/41 91/89/41 36/34/41
f 10/33/42 65/88/42 66/76/42 11/21/42
f 42/49/43 41/39/43 96/94/43 97/105/43
f 11/21/44 66/76/44 67/75/44 12/19/44
f 43/52/45 42/49/45 97/105/45 98/107/45
f 13/31/46 12/19/46 67/75/46 68/86/46
f 44/54/47 43/52/47 98/107/47 99/109/47
f 14/30/48 13/31/48 68/86/48 69/83/48
f 45/55/49 44/54/49 99/109/49 100/110/49
f 15/27/50 14/30/50 69/83/50 70/82/50
f 46/53/51 45/55/51 100/110/51 101/108/51
f 16/28/52 15/27/52 70/82/52 71/85/52
f 47/51/53 46/53/53 101/108/53 102/106/53
f 17/29/54 16/28/54 71/85/54 72/84/54
f 48/50/55 47/51/55 102/106/55 103/104/55
f 18/10/56 17/29/56 72/84/56 73/64/56
